<svg xmlns="http://www.w3.org/2000/svg" version="1.1" xmlns:xlink="http://www.w3.org/1999/xlink" xmlns:svgjs="http://svgjs.dev/svgjs" width="1000" height="1000" viewBox="0 0 1000 1000"><g transform="matrix(1,0,0,1,-0.49999999999994316,-0.49999999999994316)"><svg viewBox="0 0 280 280" data-background-color="#ffffff" preserveAspectRatio="xMidYMid meet" height="1000" width="1000" xmlns="http://www.w3.org/2000/svg" xmlns:xlink="http://www.w3.org/1999/xlink"><g id="tight-bounds" transform="matrix(1,0,0,1,0.13999999999998636,0.13999999999998636)"><svg viewBox="0 0 279.72 279.72" height="279.72" width="279.72"><g><svg viewBox="0 0 279.72 279.72" height="279.72" width="279.72"><g><svg viewBox="0 0 279.72 279.72" height="279.72" width="279.72"><g id="textblocktransform"><svg viewBox="0 0 279.72 279.72" height="279.72" width="279.72" id="textblock"><g><svg viewBox="0 0 279.72 279.72" height="279.72" width="279.72"><g transform="matrix(1,0,0,1,73.92936372216631,74.38137891160638)"><svg viewBox="0 0 131.8612725556674 130.95724217678728" height="130.95724217678728" width="131.8612725556674"><g><svg xmlns="http://www.w3.org/2000/svg" xmlns:xlink="http://www.w3.org/1999/xlink" version="1.1" x="0" y="0" viewBox="0.5719999670982361 1 62.428001403808594 62" style="enable-background:new 0 0 64 64;" xml:space="preserve" height="130.95724217678728" width="131.8612725556674" class="icon-o-0" data-fill-palette-color="accent" id="o-0"><g fill="#ed2647" data-fill-palette-color="accent"><path d="M63 50.782v-7.564l-2.736-0.678c-0.205-0.612-0.448-1.204-0.728-1.77l1.452-2.41-5.349-5.348-2.41 1.451c-0.566-0.28-1.158-0.523-1.769-0.729L50.782 31h-7.564l-0.678 2.735c-0.611 0.205-1.203 0.448-1.769 0.729l-2.41-1.451-5.349 5.348 0.532 0.883L27 38.153v-0.258c2.257-1.04 4.136-2.757 5.376-4.895H34c1.654 0 3-1.346 3-3 1.654 0 3-1.346 3-3v-4c0-1.302-0.839-2.402-2-2.816V16.85C38 8.11 30.89 1 22.151 1c-4.234 0-8.214 1.648-11.207 4.643L10.48 6.105C7.828 6.897 6 9.332 6 12.123v8.061C4.839 20.598 4 21.698 4 23v4c0 1.654 1.346 3 3 3h3.395c0.909 3.513 3.367 6.402 6.605 7.895v0.258l-7.709 1.285c-2.487 0.415-4.566 2.145-5.428 4.513L0.572 53H34.36c0.036 0.076 0.067 0.155 0.104 0.229l-1.452 2.41 5.349 5.348 2.41-1.451c0.566 0.28 1.158 0.523 1.769 0.729L43.218 63h7.564l0.678-2.735c0.611-0.205 1.203-0.448 1.769-0.729l2.41 1.451 5.349-5.348-1.452-2.41c0.28-0.565 0.523-1.157 0.728-1.77L63 50.782zM31.879 51H23v-6.101c2.222-0.453 3.898-2.388 3.982-4.722l7.207 1.201c-0.165 0.379-0.32 0.764-0.453 1.162L31 43.218v7.564L31.879 51zM19 38.605C19.961 38.854 20.963 39 22 39s2.039-0.146 3-0.395V40c0 1.654-1.346 3-3 3s-3-1.346-3-3V38.605zM34 31h-0.7c0.116-0.327 0.217-0.66 0.305-1H35C35 30.552 34.551 31 34 31zM38 27c0 0.552-0.449 1-1 1v-4h-2v4h-1.051C33.977 27.669 34 27.338 34 27v-5h3c0.551 0 1 0.448 1 1V27zM7 28c-0.551 0-1-0.448-1-1v-4c0-0.552 0.449-1 1-1h3v5c0 0.338 0.023 0.669 0.051 1H7zM10 18v2H8v-7.877c0-1.968 1.333-3.676 3.243-4.153l0.269-0.066 0.847-0.847C14.974 4.44 18.451 3 22.151 3 29.787 3 36 9.213 36 16.85V20h-2v-2h-1c-3.602 0-6.988-1.402-9.535-3.949L22 12.585l-1.464 1.466C17.988 16.598 14.602 18 11 18H10zM12 27v-7.031c3.76-0.238 7.262-1.816 9.95-4.504l0.05-0.05 0.05 0.05c2.688 2.688 6.19 4.266 9.95 4.504V27c0 1.422-0.303 2.774-0.841 4h-5.343c-0.414-1.161-1.514-2-2.816-2h-2c-1.654 0-3 1.346-3 3s1.346 3 3 3h2c1.302 0 2.402-0.839 2.816-2h4.165c-1.827 2.423-4.719 4-7.981 4C16.486 37 12 32.514 12 27zM24 32c0 0.552-0.449 1-1 1h-2c-0.551 0-1-0.448-1-1s0.449-1 1-1h2C23.551 31 24 31.448 24 32zM5.743 44.634c0.615-1.691 2.101-2.927 3.877-3.224l7.398-1.233c0.084 2.334 1.76 4.269 3.982 4.722V51H10.281l0.689-2.758-1.94-0.484L8.219 51H3.428L5.743 44.634zM58.678 49.793l-0.161 0.554c-0.25 0.862-0.587 1.682-1.003 2.436l-0.278 0.505 1.232 2.044-3.136 3.137-2.044-1.232-0.505 0.278c-0.756 0.416-1.576 0.754-2.436 1.004l-0.554 0.16L49.218 61h-4.436l-0.575-2.322-0.554-0.16c-0.86-0.25-1.679-0.588-2.436-1.004l-0.505-0.278-2.044 1.232-3.136-3.137 1.232-2.044-0.278-0.505c-0.416-0.754-0.753-1.573-1.003-2.436l-0.161-0.554L33 49.218v-4.436l2.322-0.575 0.161-0.554c0.25-0.862 0.587-1.682 1.003-2.436l0.278-0.505-1.232-2.044 3.136-3.137 2.044 1.232 0.505-0.278c0.756-0.416 1.576-0.754 2.436-1.004l0.554-0.16L44.782 33h4.436l0.575 2.322 0.554 0.16c0.86 0.25 1.679 0.588 2.436 1.004l0.505 0.278 2.044-1.232 3.136 3.137-1.232 2.044 0.278 0.505c0.416 0.754 0.753 1.573 1.003 2.436l0.161 0.554L61 44.782v4.436L58.678 49.793z" fill="#ed2647" data-fill-palette-color="accent"></path><path d="M47 37c-5.514 0-10 4.486-10 10s4.486 10 10 10 10-4.486 10-10S52.514 37 47 37zM47 55c-4.411 0-8-3.589-8-8s3.589-8 8-8 8 3.589 8 8S51.411 55 47 55z" fill="#ed2647" data-fill-palette-color="accent"></path><path d="M47 41c-3.309 0-6 2.691-6 6s2.691 6 6 6v-2c-2.206 0-4-1.794-4-4s1.794-4 4-4 4 1.794 4 4h2C53 43.691 50.309 41 47 41z" fill="#ed2647" data-fill-palette-color="accent"></path><circle cx="16" cy="23" r="1.0" fill="#ed2647" data-fill-palette-color="accent"></circle><circle cx="28" cy="23" r="1.0" fill="#ed2647" data-fill-palette-color="accent"></circle></g></svg></g></svg></g><g><path d="M38.027 86.971l-2.814 7.225-13.857-5.396 8.028 8.207-1.502 3.857-11.46 0.608 13.857 5.396-2.817 7.234-26.313-10.246 3.074-7.893 14.589-0.852-10.157-10.531 3.059-7.855z" fill="#ff0000" data-fill-palette-color="primary"></path><path d="M55.238 65.363l-7.388 7.963-20.7-19.205 7.388-7.963c2.129-2.294 4.371-3.786 6.726-4.474 2.355-0.688 4.681-0.702 6.978-0.04 2.292 0.667 4.39 1.883 6.294 3.65v0c2.102 1.95 3.529 4.078 4.283 6.383 0.753 2.305 0.833 4.638 0.24 6.999-0.602 2.361-1.876 4.59-3.821 6.687zM49.181 51.067v0c-1.066-0.989-2.175-1.673-3.328-2.054-1.143-0.381-2.264-0.43-3.363-0.146-1.094 0.289-2.092 0.919-2.993 1.891v0l-2.108 2.272 10.783 10.004 2.108-2.272c0.92-0.992 1.469-2.048 1.645-3.169 0.172-1.126 0.016-2.253-0.469-3.383-0.486-1.139-1.244-2.187-2.275-3.143z" fill="#ff0000" data-fill-palette-color="primary"></path><path d="M89.286 40.85v0c-1.924 0.952-3.851 1.451-5.781 1.497-1.927 0.052-3.757-0.255-5.491-0.921-1.731-0.66-3.282-1.609-4.651-2.846-1.361-1.234-2.448-2.671-3.26-4.312v0c-0.833-1.683-1.305-3.443-1.418-5.28-0.116-1.843 0.107-3.646 0.669-5.41 0.564-1.773 1.465-3.398 2.702-4.874 1.24-1.47 2.798-2.668 4.675-3.596v0c1.924-0.952 3.85-1.454 5.776-1.506 1.927-0.052 3.754 0.264 5.482 0.948 1.728 0.685 3.275 1.642 4.642 2.873 1.361 1.234 2.442 2.659 3.242 4.276v0c0.824 1.665 1.298 3.413 1.423 5.243 0.119 1.834-0.101 3.636-0.66 5.407-0.558 1.77-1.449 3.394-2.671 4.869-1.219 1.482-2.779 2.693-4.679 3.632zM77.197 30.848v0c0.424 0.857 0.95 1.625 1.579 2.305 0.635 0.677 1.345 1.216 2.129 1.617 0.787 0.392 1.633 0.592 2.539 0.602 0.906 0.01 1.86-0.233 2.861-0.729v0c0.995-0.492 1.77-1.112 2.324-1.859 0.548-0.744 0.89-1.555 1.027-2.434 0.139-0.887 0.126-1.786-0.039-2.695-0.171-0.907-0.462-1.776-0.874-2.609v0c-0.421-0.851-0.943-1.61-1.566-2.278-0.629-0.665-1.336-1.198-2.119-1.598-0.787-0.392-1.636-0.583-2.549-0.575-0.912 0.008-1.857 0.254-2.834 0.738v0c-0.995 0.492-1.764 1.109-2.306 1.85-0.536 0.738-0.887 1.539-1.053 2.402-0.16 0.86-0.158 1.745 0.007 2.655 0.171 0.907 0.462 1.776 0.874 2.608z" fill="#ff0000" data-fill-palette-color="primary"></path><path d="M124.176 22.829l12.266-1.578 0.863 6.709-19.966 2.568-3.603-28.006 19.605-2.522 0.864 6.709-11.906 1.531 0.508 3.945 10.173-1.308 0.801 6.228-10.173 1.308z" fill="#ff0000" data-fill-palette-color="primary"></path><path d="M180.521 5.855l-1.339 6.63-7.956-1.608-4.253 21.048-7.599-1.535 4.252-21.048-7.996-1.615 1.34-6.63z" fill="#ff0000" data-fill-palette-color="primary"></path><path d="M199.346 37.241l10.824 5.982-3.272 5.92-17.618-9.737 13.657-24.714 17.301 9.561-3.271 5.92-10.506-5.806-1.924 3.482 8.977 4.961-3.037 5.496-8.978-4.961z" fill="#ff0000" data-fill-palette-color="primary"></path><path d="M228.393 48.541v0c1.281-1.153 2.755-2.045 4.423-2.677 1.667-0.622 3.42-0.924 5.258-0.903 1.838 0.02 3.657 0.426 5.455 1.215 1.798 0.79 3.451 2.023 4.96 3.699v0c1.81 2.011 2.971 4.14 3.482 6.388 0.506 2.252 0.397 4.365-0.326 6.338v0l-7.094-1.588c0.461-0.876 0.658-1.724 0.591-2.542-0.057-0.818-0.263-1.575-0.617-2.27-0.364-0.696-0.784-1.309-1.261-1.839v0c-0.743-0.825-1.549-1.394-2.42-1.707-0.865-0.308-1.737-0.415-2.614-0.323-0.872 0.097-1.719 0.343-2.54 0.738-0.817 0.4-1.55 0.893-2.201 1.479v0c-0.73 0.657-1.334 1.395-1.81 2.214-0.477 0.818-0.788 1.669-0.935 2.553-0.151 0.888-0.105 1.765 0.14 2.63 0.245 0.866 0.706 1.674 1.381 2.425v0c0.477 0.53 1.048 0.999 1.714 1.405 0.665 0.397 1.391 0.654 2.175 0.772 0.78 0.112 1.592 0.003 2.434-0.33v0l1.421 7.238c-1.394 0.503-2.891 0.601-4.49 0.293-1.599-0.308-3.141-0.899-4.625-1.773-1.488-0.879-2.773-1.918-3.854-3.119v0c-1.4-1.556-2.371-3.258-2.913-5.107-0.536-1.853-0.71-3.712-0.522-5.574 0.193-1.867 0.704-3.64 1.531-5.317 0.831-1.672 1.917-3.111 3.257-4.318z" fill="#ff0000" data-fill-palette-color="primary"></path><path d="M275.575 95.728l2.996 7.151-26.045 10.91-2.995-7.152 10.196-4.271-3.655-8.725-10.196 4.271-3-7.16 26.045-10.91 2.999 7.161-9.609 4.025 3.655 8.725z" fill="#ff0000" data-fill-palette-color="primary"></path><path d="M19.266 178.409v0c0.997-0.33 2.04-0.467 3.129-0.409 1.083 0.059 2.137 0.32 3.163 0.781 1.019 0.464 1.937 1.138 2.754 2.023 0.809 0.88 1.431 1.976 1.865 3.285v0c0.519 1.565 0.646 3.04 0.382 4.425-0.264 1.385-0.842 2.541-1.734 3.467v0l-3.583-2.63c0.471-0.376 0.791-0.801 0.96-1.275 0.169-0.474 0.238-0.951 0.207-1.43-0.029-0.473-0.112-0.916-0.25-1.332v0c-0.214-0.645-0.527-1.162-0.939-1.55-0.404-0.384-0.863-0.657-1.378-0.82-0.515-0.163-1.052-0.233-1.612-0.21-0.553 0.02-1.086 0.115-1.596 0.284v0c-0.569 0.188-1.086 0.456-1.553 0.802-0.462 0.338-0.844 0.737-1.145 1.198-0.303 0.455-0.491 0.957-0.565 1.506-0.075 0.543-0.016 1.108 0.179 1.696v0c0.138 0.415 0.341 0.816 0.611 1.201 0.276 0.384 0.62 0.706 1.032 0.966 0.404 0.256 0.883 0.395 1.436 0.418v0l-0.968 4.394c-0.907-0.061-1.772-0.373-2.597-0.937-0.818-0.565-1.535-1.274-2.152-2.127-0.609-0.855-1.07-1.751-1.38-2.69v0c-0.402-1.214-0.531-2.405-0.387-3.573 0.153-1.164 0.514-2.248 1.082-3.251 0.564-0.995 1.281-1.857 2.153-2.586 0.876-0.737 1.838-1.279 2.886-1.626z" fill="#ff0000" data-fill-palette-color="primary"></path><path d="M21.188 207.329v0c-0.596-1.17-0.917-2.343-0.965-3.519-0.048-1.177 0.126-2.296 0.521-3.358 0.396-1.062 0.963-2.016 1.704-2.862 0.749-0.842 1.622-1.517 2.617-2.024v0c1.026-0.522 2.099-0.824 3.222-0.904 1.122-0.08 2.225 0.045 3.308 0.378 1.086 0.323 2.08 0.859 2.982 1.608 0.908 0.746 1.654 1.691 2.238 2.837v0c0.592 1.164 0.913 2.334 0.96 3.51 0.042 1.18-0.14 2.299-0.544 3.358-0.405 1.059-0.977 2.012-1.717 2.857-0.743 0.839-1.607 1.509-2.59 2.011v0c-1.008 0.513-2.071 0.813-3.19 0.899-1.116 0.092-2.219-0.026-3.308-0.355-1.083-0.332-2.08-0.867-2.992-1.603-0.911-0.737-1.66-1.681-2.246-2.833zM27.201 199.871v0c-0.522 0.266-0.984 0.596-1.388 0.99-0.412 0.391-0.737 0.829-0.974 1.312-0.231 0.48-0.349 0.997-0.355 1.552 0.004 0.557 0.16 1.138 0.469 1.743v0c0.308 0.606 0.69 1.072 1.144 1.401 0.463 0.331 0.964 0.536 1.503 0.616 0.539 0.08 1.087 0.066 1.643-0.043 0.556-0.109 1.086-0.292 1.59-0.549v0c0.516-0.263 0.977-0.588 1.383-0.977 0.397-0.391 0.715-0.828 0.952-1.312 0.237-0.483 0.351-1.002 0.341-1.555-0.013-0.56-0.171-1.137-0.473-1.731v0c-0.308-0.606-0.691-1.068-1.148-1.386-0.454-0.328-0.946-0.538-1.477-0.63-0.53-0.092-1.071-0.085-1.62 0.021-0.556 0.109-1.086 0.292-1.59 0.548z" fill="#ff0000" data-fill-palette-color="primary"></path><path d="M31.889 224.608l-3.875-5.384 14.004-10.078 3.874 5.383c1.117 1.551 1.736 3.075 1.859 4.57 0.128 1.492-0.145 2.886-0.819 4.185-0.673 1.289-1.654 2.397-2.943 3.324v0c-1.42 1.022-2.868 1.62-4.343 1.795-1.469 0.17-2.875-0.066-4.217-0.709-1.338-0.638-2.518-1.666-3.54-3.086zM41.181 222.708v0c0.721-0.519 1.264-1.101 1.63-1.745 0.365-0.644 0.529-1.31 0.492-1.996-0.036-0.695-0.29-1.371-0.762-2.026v0l-1.109-1.54-7.301 5.254 1.109 1.541c0.484 0.672 1.051 1.126 1.702 1.362 0.651 0.236 1.346 0.28 2.084 0.13 0.738-0.15 1.457-0.476 2.155-0.98z" fill="#ff0000" data-fill-palette-color="primary"></path><path d="M46.544 235.849l5.232 5.459-2.981 2.857-8.509-8.877 12.456-11.938 8.355 8.716-2.981 2.857-5.079-5.298-1.756 1.683 4.338 4.526-2.77 2.655-4.338-4.526z" fill="#ff0000" data-fill-palette-color="primary"></path><path d="M62.932 244.579v0c0.596-0.864 1.346-1.602 2.249-2.214 0.9-0.606 1.898-1.034 2.994-1.283 1.092-0.244 2.231-0.26 3.417-0.048 1.177 0.214 2.333 0.713 3.469 1.497v0c1.358 0.936 2.348 2.036 2.973 3.3 0.624 1.264 0.86 2.535 0.708 3.811v0l-4.446 0.062c0.149-0.584 0.148-1.116-0.003-1.596-0.151-0.48-0.384-0.902-0.697-1.265-0.308-0.36-0.642-0.663-1.002-0.912v0c-0.56-0.386-1.121-0.609-1.684-0.67-0.553-0.063-1.085-0.004-1.593 0.176-0.509 0.181-0.98 0.449-1.413 0.804-0.429 0.35-0.797 0.746-1.102 1.19v0c-0.34 0.493-0.592 1.018-0.756 1.576-0.165 0.548-0.229 1.097-0.191 1.646 0.033 0.546 0.185 1.06 0.458 1.542 0.267 0.478 0.655 0.893 1.165 1.245v0c0.36 0.248 0.764 0.445 1.212 0.59 0.451 0.14 0.92 0.189 1.406 0.148 0.477-0.039 0.942-0.217 1.397-0.533v0l1.877 4.09c-0.76 0.498-1.639 0.771-2.637 0.819-0.994 0.042-1.993-0.091-2.998-0.4-1.001-0.314-1.909-0.752-2.724-1.314v0c-1.053-0.726-1.874-1.598-2.462-2.617-0.58-1.021-0.945-2.103-1.098-3.246-0.15-1.134-0.097-2.254 0.159-3.361 0.255-1.116 0.695-2.129 1.322-3.037z" fill="#ff0000" data-fill-palette-color="primary"></path><path d="M79.391 265.192l-4.24-2.106 7.676-15.452 7.088 3.522c0.753 0.374 1.373 0.874 1.86 1.499 0.489 0.619 0.837 1.303 1.043 2.051 0.21 0.743 0.282 1.497 0.218 2.262-0.058 0.768-0.249 1.477-0.572 2.128v0c-0.296 0.597-0.668 1.126-1.116 1.587-0.45 0.468-0.958 0.847-1.523 1.137-0.559 0.293-1.153 0.491-1.782 0.592v0l0.443 7.299-4.656-2.313-0.363-6.099-1.718-0.853zM85.23 253.439l-1.644 3.309 2.676 1.33c0.175 0.087 0.372 0.106 0.592 0.057 0.229-0.052 0.459-0.174 0.69-0.368 0.231-0.193 0.434-0.465 0.607-0.814v0c0.18-0.362 0.269-0.693 0.269-0.994-0.01-0.298-0.072-0.558-0.188-0.781-0.115-0.222-0.26-0.377-0.434-0.463v0z" fill="#ff0000" data-fill-palette-color="primary"></path><path d="M98.36 268.774l7.162 2.427-1.326 3.91-11.645-3.946 5.537-16.341 11.436 3.876-1.326 3.911-6.951-2.356-0.781 2.304 5.938 2.012-1.231 3.634-5.938-2.013z" fill="#ff0000" data-fill-palette-color="primary"></path><path d="M107.654 275.935l8.533-15.976 5.214 0.956 2.29 17.96-4.736-0.868-0.413-3.514-4.518-0.828-1.613 3.142zM115.287 270.694l3.078 0.564-0.403-6.252z" fill="#ff0000" data-fill-palette-color="primary"></path><path d="M140.674 262.639l-0.236 4.122-4.949-0.284-0.752 13.102-4.737-0.271 0.752-13.103-4.969-0.285 0.236-4.122z" fill="#ff0000" data-fill-palette-color="primary"></path><path d="M148.594 275.279l7.544-0.512 0.28 4.119-12.268 0.834-1.169-17.213 12.046-0.819 0.28 4.12-7.323 0.497 0.165 2.428 6.255-0.425 0.26 3.827-6.255 0.425z" fill="#ff0000" data-fill-palette-color="primary"></path><path d="M173.418 275.582l-4.615 1.061-3.865-16.815 4.614-1.061z" fill="#ff0000" data-fill-palette-color="primary"></path><path d="M189.751 270.011l-9.312-5.672 2.859 7.983-4.458 1.597-5.817-16.243 3.479-1.246 9.468 5.928-2.957-8.26 4.467-1.599 5.817 16.243z" fill="#ff0000" data-fill-palette-color="primary"></path><path d="M208.752 260.498l-10.095-4.121 4.091 7.428-4.148 2.284-8.323-15.113 3.236-1.782 10.29 4.348-4.232-7.684 4.156-2.289 8.324 15.112z" fill="#ff0000" data-fill-palette-color="primary"></path><path d="M223.076 250.455v0c-1.028 0.816-2.113 1.365-3.257 1.646-1.144 0.281-2.275 0.333-3.395 0.156-1.12-0.176-2.168-0.543-3.143-1.1-0.974-0.567-1.809-1.288-2.504-2.163v0c-0.716-0.901-1.225-1.894-1.527-2.977-0.302-1.084-0.398-2.189-0.288-3.317 0.101-1.129 0.428-2.209 0.982-3.242 0.55-1.039 1.329-1.958 2.336-2.758v0c1.022-0.812 2.105-1.359 3.249-1.639 1.148-0.276 2.281-0.32 3.399-0.135 1.119 0.186 2.166 0.557 3.142 1.115 0.97 0.562 1.799 1.274 2.485 2.139v0c0.703 0.885 1.209 1.868 1.516 2.947 0.313 1.075 0.416 2.179 0.31 3.312-0.11 1.127-0.436 2.211-0.976 3.251-0.541 1.04-1.317 1.961-2.329 2.765zM214.571 246.045v0c0.364 0.459 0.78 0.846 1.246 1.163 0.466 0.326 0.959 0.558 1.48 0.695 0.517 0.131 1.047 0.144 1.59 0.038 0.545-0.115 1.083-0.384 1.616-0.806v0c0.532-0.423 0.914-0.889 1.145-1.399 0.232-0.519 0.334-1.052 0.305-1.596-0.029-0.545-0.152-1.078-0.369-1.602-0.218-0.523-0.503-1.006-0.855-1.449v0c-0.36-0.453-0.771-0.84-1.232-1.161-0.462-0.312-0.954-0.536-1.475-0.672-0.521-0.136-1.052-0.145-1.592-0.025-0.546 0.124-1.08 0.394-1.602 0.808v0c-0.532 0.423-0.909 0.89-1.13 1.401-0.231 0.51-0.339 1.034-0.324 1.572 0.015 0.538 0.129 1.066 0.343 1.585 0.218 0.523 0.503 1.006 0.854 1.448z" fill="#ff0000" data-fill-palette-color="primary"></path><path d="M219.078 231.382l3.4-3.676 10.947 5.53-6.396-10.452 3.38-3.654 8.623 16.087-3.194 3.454z" fill="#ff0000" data-fill-palette-color="primary"></path><path d="M243.811 229.96l-10.911-14.458 3.059-4.328 17.26 5.47-2.779 3.933-3.362-1.103-2.65 3.752 2.173 2.784zM242.263 220.831l1.806-2.556-5.844-2.261z" fill="#ff0000" data-fill-palette-color="primary"></path><path d="M245.624 194.409l3.641 1.948-2.337 4.371 11.572 6.189-2.237 4.184-11.573-6.189-2.348 4.388-3.641-1.947z" fill="#ff0000" data-fill-palette-color="primary"></path><path d="M260.423 192.536l2.706-7.061 3.856 1.478-4.4 11.482-16.111-6.174 4.32-11.274 3.856 1.477-2.626 6.854 2.272 0.87 2.243-5.854 3.582 1.373-2.243 5.854z" fill="#ff0000" data-fill-palette-color="primary"></path><path d="M1.83 145.607c0-5.991 4.857-10.848 10.848-10.848 5.991 0 10.848 4.857 10.848 10.848 0 5.991-4.857 10.848-10.848 10.849-5.991 0-10.848-4.857-10.848-10.849z" fill="#ff0000" data-fill-palette-color="primary"></path><path d="M255.986 145.607c0-5.991 4.857-10.848 10.848-10.848 5.991 0 10.848 4.857 10.848 10.848 0 5.991-4.857 10.848-10.848 10.849-5.991 0-10.848-4.857-10.848-10.849z" fill="#ff0000" data-fill-palette-color="primary"></path></g></svg></g></svg></g></svg></g><g></g></svg></g><defs></defs></svg><rect width="279.72" height="279.72" fill="none" stroke="none" visibility="hidden"></rect></g></svg></g></svg>