<svg xmlns="http://www.w3.org/2000/svg" version="1.1" xmlns:xlink="http://www.w3.org/1999/xlink" xmlns:svgjs="http://svgjs.dev/svgjs" width="1000" height="999" viewBox="0 0 1000 999"><g transform="matrix(1,0,0,1,-0.215743440233382,-0.21552769679306039)"><svg viewBox="0 0 343 343" data-background-color="#ed2647" preserveAspectRatio="xMidYMid meet" height="999" width="1000" xmlns="http://www.w3.org/2000/svg" xmlns:xlink="http://www.w3.org/1999/xlink"><g id="tight-bounds" transform="matrix(1,0,0,1,0.0740000000000407,0.07400000000001228)"><svg viewBox="0 0 342.85155851775386 342.85155851775386" height="342.85155851775386" width="342.85155851775386"><g><svg></svg></g><g><svg viewBox="0 0 342.85155851775386 342.85155851775386" height="342.85155851775386" width="342.85155851775386"><g><path d="M0 171.426c0-94.676 76.75-171.426 171.426-171.426 94.676 0 171.426 76.75 171.426 171.426 0 94.676-76.75 171.426-171.426 171.426-94.676 0-171.426-76.75-171.426-171.426zM171.426 339.703c92.937 0 168.277-75.34 168.277-168.277 0-92.937-75.34-168.277-168.277-168.277-92.937 0-168.277 75.34-168.277 168.277 0 92.937 75.34 168.277 168.277 168.277z" data-fill-palette-color="tertiary" fill="#ffffff" stroke="transparent"></path><ellipse rx="164.56874808852186" ry="164.56874808852186" cx="171.42577925887693" cy="171.42577925887693" fill="#ffffff" stroke="transparent" stroke-width="0" fill-opacity="1" data-fill-palette-color="tertiary"></ellipse></g><g transform="matrix(1,0,0,1,64.84655864529837,96.4464088302037)"><svg viewBox="0 0 213.1584412271571 149.95874085734647" height="149.95874085734647" width="213.1584412271571"><g><svg viewBox="0 0 213.1584412271571 149.95874085734647" height="149.95874085734647" width="213.1584412271571"><g><svg viewBox="0 0 213.1584412271571 149.95874085734647" height="149.95874085734647" width="213.1584412271571"><g transform="matrix(1,0,0,1,0,90.46428151441143)"><svg viewBox="0 0 213.1584412271571 59.49445934293503" height="59.49445934293503" width="213.1584412271571"><g id="textblocktransform"><svg viewBox="0 0 213.1584412271571 59.49445934293503" height="59.49445934293503" width="213.1584412271571" id="textblock"><g><svg viewBox="0 0 213.1584412271571 34.91646208202109" height="34.91646208202109" width="213.1584412271571"><g transform="matrix(1,0,0,1,0,0)"><svg width="213.1584412271571" viewBox="3 -36.54999923706055 226.0800018310547 37.040000915527344" height="34.91646208202109" data-palette-color="#111111"><path d="M37.99-25L37.99 0 31.01 0 31.01-25Q31.01-25.73 30.73-26.37 30.44-27 29.97-27.48 29.49-27.95 28.86-28.22 28.22-28.49 27.49-28.49L27.49-28.49Q26.76-28.49 26.12-28.22 25.49-27.95 25.01-27.48 24.54-27 24.27-26.37 24-25.73 24-25L24-25 24 0 16.99 0 16.99-25Q16.99-25.73 16.72-26.37 16.46-27 15.98-27.48 15.5-27.95 14.87-28.22 14.23-28.49 13.5-28.49L13.5-28.49Q12.77-28.49 12.13-28.22 11.5-27.95 11.02-27.48 10.55-27 10.28-26.37 10.01-25.73 10.01-25L10.01-25 10.01 0 3 0 3-25Q3-27.17 3.82-29.09 4.64-31.01 6.07-32.43 7.5-33.86 9.41-34.68 11.33-35.5 13.5-35.5L13.5-35.5Q15.45-35.5 17.26-34.8 19.07-34.11 20.51-32.79L20.51-32.79Q21.95-34.11 23.74-34.8 25.54-35.5 27.49-35.5L27.49-35.5Q29.66-35.5 31.58-34.68 33.5-33.86 34.92-32.43 36.35-31.01 37.17-29.09 37.99-27.17 37.99-25L37.99-25ZM68.5-36.55L68.5 0 66.89 0 64.3-3.59Q63.35-2.73 62.29-1.99 61.23-1.25 60.06-0.7 58.88-0.15 57.65 0.17 56.42 0.49 55.15 0.49L55.15 0.49Q52.39 0.49 49.96-0.55 47.53-1.59 45.71-3.43 43.89-5.27 42.84-7.8 41.79-10.33 41.79-13.31L41.79-13.31Q41.79-16.26 42.84-18.8 43.89-21.34 45.71-23.19 47.53-25.05 49.96-26.1 52.39-27.15 55.15-27.15L55.15-27.15Q56.03-27.15 56.97-27 57.91-26.86 58.8-26.53 59.69-26.2 60.47-25.66 61.25-25.12 61.79-24.34L61.79-24.34 61.79-36.55 68.5-36.55ZM61.79-13.31L61.79-13.31Q61.79-14.67 61.26-15.95 60.74-17.24 59.84-18.23 58.93-19.21 57.72-19.81 56.52-20.41 55.15-20.41L55.15-20.41Q53.78-20.41 52.57-19.92 51.36-19.43 50.47-18.52 49.58-17.6 49.07-16.28 48.56-14.97 48.56-13.31L48.56-13.31Q48.56-11.87 49.07-10.57 49.58-9.28 50.47-8.3 51.36-7.32 52.57-6.76 53.78-6.2 55.15-6.2L55.15-6.2Q56.52-6.2 57.72-6.8 58.93-7.4 59.84-8.39 60.74-9.38 61.26-10.66 61.79-11.94 61.79-13.31ZM98.85-13.31L98.85-13.31Q98.85-10.38 97.8-7.85 96.75-5.32 94.94-3.48 93.13-1.64 90.71-0.57 88.28 0.49 85.49 0.49L85.49 0.49Q82.73 0.49 80.31-0.57 77.88-1.64 76.06-3.48 74.24-5.32 73.19-7.85 72.14-10.38 72.14-13.31L72.14-13.31Q72.14-16.28 73.19-18.82 74.24-21.36 76.06-23.21 77.88-25.05 80.31-26.1 82.73-27.15 85.49-27.15L85.49-27.15Q88.28-27.15 90.71-26.16 93.13-25.17 94.94-23.35 96.75-21.53 97.8-18.98 98.85-16.43 98.85-13.31ZM92.13-13.31L92.13-13.31Q92.13-14.92 91.61-16.22 91.08-17.53 90.18-18.47 89.28-19.41 88.07-19.91 86.86-20.41 85.49-20.41L85.49-20.41Q84.13-20.41 82.92-19.91 81.71-19.41 80.82-18.47 79.93-17.53 79.41-16.22 78.9-14.92 78.9-13.31L78.9-13.31Q78.9-11.79 79.41-10.5 79.93-9.2 80.82-8.25 81.71-7.3 82.92-6.75 84.13-6.2 85.49-6.2L85.49-6.2Q86.86-6.2 88.07-6.71 89.28-7.23 90.18-8.15 91.08-9.08 91.61-10.4 92.13-11.72 92.13-13.31ZM125.43-21.46L112.93-6.4Q113.32-6.27 113.71-6.24 114.1-6.2 114.49-6.2L114.49-6.2Q115.47-6.2 116.37-6.47 117.28-6.74 118.07-7.24 118.86-7.74 119.49-8.46 120.11-9.18 120.5-10.06L120.5-10.06 125.38-5.15Q124.46-3.83 123.25-2.78 122.04-1.73 120.63-1 119.23-0.27 117.68 0.11 116.13 0.49 114.49 0.49L114.49 0.49Q111.74 0.49 109.31-0.54 106.88-1.56 105.06-3.39 103.24-5.22 102.19-7.75 101.14-10.28 101.14-13.31L101.14-13.31Q101.14-16.41 102.19-18.97 103.24-21.53 105.06-23.34 106.88-25.15 109.31-26.15 111.74-27.15 114.49-27.15L114.49-27.15Q116.13-27.15 117.69-26.76 119.26-26.37 120.66-25.63 122.06-24.9 123.28-23.84 124.5-22.78 125.43-21.46L125.43-21.46ZM108.59-9.84L116.35-20.14Q115.89-20.31 115.43-20.36 114.98-20.41 114.49-20.41L114.49-20.41Q113.13-20.41 111.92-19.91 110.71-19.41 109.82-18.48 108.93-17.55 108.42-16.25 107.9-14.94 107.9-13.31L107.9-13.31Q107.9-12.94 107.94-12.48 107.98-12.01 108.06-11.54 108.15-11.06 108.27-10.62 108.39-10.18 108.59-9.84L108.59-9.84ZM144.18-28L144.18 0 137.2 0 137.2-28 126.67-28 126.67-35.01 154.68-35.01 154.68-28 144.18-28ZM176.48-21.46L163.98-6.4Q164.37-6.27 164.76-6.24 165.15-6.2 165.54-6.2L165.54-6.2Q166.52-6.2 167.42-6.47 168.32-6.74 169.12-7.24 169.91-7.74 170.53-8.46 171.15-9.18 171.55-10.06L171.55-10.06 176.43-5.15Q175.5-3.83 174.29-2.78 173.08-1.73 171.68-1 170.28-0.27 168.73 0.11 167.18 0.49 165.54 0.49L165.54 0.49Q162.78 0.49 160.35-0.54 157.92-1.56 156.1-3.39 154.28-5.22 153.23-7.75 152.18-10.28 152.18-13.31L152.18-13.31Q152.18-16.41 153.23-18.97 154.28-21.53 156.1-23.34 157.92-25.15 160.35-26.15 162.78-27.15 165.54-27.15L165.54-27.15Q167.18-27.15 168.74-26.76 170.3-26.37 171.7-25.63 173.11-24.9 174.33-23.84 175.55-22.78 176.48-21.46L176.48-21.46ZM159.63-9.84L167.39-20.14Q166.93-20.31 166.48-20.36 166.03-20.41 165.54-20.41L165.54-20.41Q164.17-20.41 162.96-19.91 161.76-19.41 160.86-18.48 159.97-17.55 159.46-16.25 158.95-14.94 158.95-13.31L158.95-13.31Q158.95-12.94 158.98-12.48 159.02-12.01 159.11-11.54 159.19-11.06 159.31-10.62 159.44-10.18 159.63-9.84L159.63-9.84ZM202.48-20.95L202.48-20.95 197.59-16.04Q197.23-17.07 196.59-17.88 195.96-18.7 195.16-19.26 194.37-19.82 193.44-20.12 192.51-20.41 191.54-20.41L191.54-20.41Q190.17-20.41 188.96-19.85 187.75-19.29 186.86-18.27 185.97-17.26 185.46-15.87 184.95-14.48 184.95-12.79L184.95-12.79Q184.95-11.43 185.46-10.23 185.97-9.03 186.86-8.13 187.75-7.23 188.96-6.71 190.17-6.2 191.54-6.2L191.54-6.2Q192.51-6.2 193.42-6.47 194.32-6.74 195.11-7.24 195.91-7.74 196.53-8.46 197.15-9.18 197.54-10.06L197.54-10.06 202.43-5.15Q201.5-3.83 200.29-2.78 199.08-1.73 197.68-1 196.27-0.27 194.72 0.11 193.17 0.49 191.54 0.49L191.54 0.49Q188.78 0.49 186.35-0.55 183.92-1.59 182.1-3.39 180.28-5.2 179.23-7.62 178.18-10.03 178.18-12.79L178.18-12.79Q178.18-15.8 179.23-18.41 180.28-21.02 182.1-22.96 183.92-24.9 186.35-26.03 188.78-27.15 191.54-27.15L191.54-27.15Q193.17-27.15 194.75-26.73 196.32-26.32 197.75-25.52 199.18-24.73 200.39-23.58 201.6-22.44 202.48-20.95ZM212.38-14.94L212.38 0 205.72 0 205.72-36.55 212.38-36.55 212.38-25Q213.58-25.9 214.85-26.28 216.12-26.66 217.44-26.66L217.44-26.66Q219.86-26.66 221.98-25.74 224.1-24.83 225.68-23.23 227.25-21.63 228.17-19.49 229.08-17.36 229.08-14.94L229.08-14.94 229.08 0 222.37 0 222.37-14.94 222.42-14.94Q222.42-15.97 222.03-16.88 221.64-17.8 220.95-18.48 220.27-19.17 219.37-19.56 218.46-19.95 217.44-19.95L217.44-19.95Q216.39-19.95 215.46-19.56 214.53-19.17 213.85-18.48 213.17-17.8 212.78-16.88 212.38-15.97 212.38-14.94L212.38-14.94Z" opacity="1" transform="matrix(1,0,0,1,0,0)" fill="#111111" class="wordmark-text-0" data-fill-palette-color="quaternary" id="text-0"></path></svg></g></svg></g><g transform="matrix(1,0,0,1,0,43.1594007844963)"><svg viewBox="0 0 213.1584412271571 16.335058558438732" height="16.335058558438732" width="213.1584412271571"><g transform="matrix(1,0,0,1,0,0)"><svg width="213.1584412271571" viewBox="1.340000033378601 -36.54999923706055 499.1700134277344 38.2599983215332" height="16.335058558438732" data-palette-color="#111111"><path d="M27.49-9.69L31.2-3.59Q28.76-1.49 25.73-0.37 22.71 0.76 19.46 0.76L19.46 0.76Q16.97 0.76 14.66 0.11 12.35-0.54 10.34-1.72 8.33-2.91 6.67-4.57 5-6.23 3.82-8.24 2.64-10.25 1.99-12.56 1.34-14.87 1.34-17.36L1.34-17.36Q1.34-19.85 1.99-22.17 2.64-24.49 3.82-26.5 5-28.52 6.67-30.18 8.33-31.84 10.34-33.02 12.35-34.2 14.66-34.85 16.97-35.5 19.46-35.5L19.46-35.5Q22.71-35.5 25.73-34.39 28.76-33.28 31.2-31.15L31.2-31.15 27.49-25.05Q25.95-26.71 23.85-27.6 21.75-28.49 19.46-28.49L19.46-28.49Q17.14-28.49 15.11-27.61 13.09-26.73 11.57-25.23 10.06-23.73 9.18-21.69 8.3-19.65 8.3-17.36L8.3-17.36Q8.3-15.06 9.18-13.05 10.06-11.04 11.57-9.52 13.09-8.01 15.11-7.13 17.14-6.25 19.46-6.25L19.46-6.25Q21.75-6.25 23.85-7.14 25.95-8.03 27.49-9.69L27.49-9.69ZM58.91-13.31L58.91-13.31Q58.91-10.38 57.86-7.85 56.81-5.32 55-3.48 53.2-1.64 50.77-0.57 48.34 0.49 45.55 0.49L45.55 0.49Q42.8 0.49 40.37-0.57 37.94-1.64 36.12-3.48 34.3-5.32 33.25-7.85 32.2-10.38 32.2-13.31L32.2-13.31Q32.2-16.28 33.25-18.82 34.3-21.36 36.12-23.21 37.94-25.05 40.37-26.1 42.8-27.15 45.55-27.15L45.55-27.15Q48.34-27.15 50.77-26.16 53.2-25.17 55-23.35 56.81-21.53 57.86-18.98 58.91-16.43 58.91-13.31ZM52.19-13.31L52.19-13.31Q52.19-14.92 51.67-16.22 51.14-17.53 50.24-18.47 49.34-19.41 48.13-19.91 46.92-20.41 45.55-20.41L45.55-20.41Q44.19-20.41 42.98-19.91 41.77-19.41 40.88-18.47 39.99-17.53 39.48-16.22 38.96-14.92 38.96-13.31L38.96-13.31Q38.96-11.79 39.48-10.5 39.99-9.2 40.88-8.25 41.77-7.3 42.98-6.75 44.19-6.2 45.55-6.2L45.55-6.2Q46.92-6.2 48.13-6.71 49.34-7.23 50.24-8.15 51.14-9.08 51.67-10.4 52.19-11.72 52.19-13.31ZM87.86-36.55L87.86 0 86.25 0 83.66-3.59Q82.71-2.73 81.65-1.99 80.59-1.25 79.41-0.7 78.24-0.15 77.01 0.17 75.78 0.49 74.51 0.49L74.51 0.49Q71.75 0.49 69.32-0.55 66.89-1.59 65.07-3.43 63.25-5.27 62.2-7.8 61.15-10.33 61.15-13.31L61.15-13.31Q61.15-16.26 62.2-18.8 63.25-21.34 65.07-23.19 66.89-25.05 69.32-26.1 71.75-27.15 74.51-27.15L74.51-27.15Q75.39-27.15 76.33-27 77.27-26.86 78.16-26.53 79.05-26.2 79.83-25.66 80.61-25.12 81.15-24.34L81.15-24.34 81.15-36.55 87.86-36.55ZM81.15-13.31L81.15-13.31Q81.15-14.67 80.62-15.95 80.1-17.24 79.19-18.23 78.29-19.21 77.08-19.81 75.87-20.41 74.51-20.41L74.51-20.41Q73.14-20.41 71.93-19.92 70.72-19.43 69.83-18.52 68.94-17.6 68.43-16.28 67.91-14.97 67.91-13.31L67.91-13.31Q67.91-11.87 68.43-10.57 68.94-9.28 69.83-8.3 70.72-7.32 71.93-6.76 73.14-6.2 74.51-6.2L74.51-6.2Q75.87-6.2 77.08-6.8 78.29-7.4 79.19-8.39 80.1-9.38 80.62-10.66 81.15-11.94 81.15-13.31ZM115.84-21.46L103.34-6.4Q103.73-6.27 104.12-6.24 104.51-6.2 104.9-6.2L104.9-6.2Q105.88-6.2 106.78-6.47 107.68-6.74 108.48-7.24 109.27-7.74 109.89-8.46 110.51-9.18 110.91-10.06L110.91-10.06 115.79-5.15Q114.86-3.83 113.65-2.78 112.44-1.73 111.04-1 109.64-0.27 108.09 0.11 106.54 0.49 104.9 0.49L104.9 0.49Q102.14 0.49 99.71-0.54 97.28-1.56 95.46-3.39 93.64-5.22 92.6-7.75 91.55-10.28 91.55-13.31L91.55-13.31Q91.55-16.41 92.6-18.97 93.64-21.53 95.46-23.34 97.28-25.15 99.71-26.15 102.14-27.15 104.9-27.15L104.9-27.15Q106.54-27.15 108.1-26.76 109.66-26.37 111.06-25.63 112.47-24.9 113.69-23.84 114.91-22.78 115.84-21.46L115.84-21.46ZM98.99-9.84L106.76-20.14Q106.29-20.31 105.84-20.36 105.39-20.41 104.9-20.41L104.9-20.41Q103.53-20.41 102.32-19.91 101.12-19.41 100.22-18.48 99.33-17.55 98.82-16.25 98.31-14.94 98.31-13.31L98.31-13.31Q98.31-12.94 98.34-12.48 98.38-12.01 98.47-11.54 98.55-11.06 98.67-10.62 98.8-10.18 98.99-9.84L98.99-9.84ZM127.38-2.49L127.38-2.49Q127.38-1.61 127.07-0.84 126.75-0.07 126.19 0.49 125.62 1.05 124.87 1.38 124.11 1.71 123.23 1.71L123.23 1.71Q122.38 1.71 121.61 1.38 120.84 1.05 120.27 0.49 119.69-0.07 119.36-0.84 119.03-1.61 119.03-2.49L119.03-2.49Q119.03-3.34 119.36-4.1 119.69-4.86 120.27-5.42 120.84-5.98 121.61-6.31 122.38-6.64 123.23-6.64L123.23-6.64Q124.11-6.64 124.87-6.31 125.62-5.98 126.19-5.42 126.75-4.86 127.07-4.1 127.38-3.34 127.38-2.49ZM156.58-9.69L160.29-3.59Q157.85-1.49 154.82-0.37 151.79 0.76 148.55 0.76L148.55 0.76Q146.06 0.76 143.75 0.11 141.44-0.54 139.43-1.72 137.41-2.91 135.75-4.57 134.09-6.23 132.91-8.24 131.73-10.25 131.08-12.56 130.43-14.87 130.43-17.36L130.43-17.36Q130.43-19.85 131.08-22.17 131.73-24.49 132.91-26.5 134.09-28.52 135.75-30.18 137.41-31.84 139.43-33.02 141.44-34.2 143.75-34.85 146.06-35.5 148.55-35.5L148.55-35.5Q151.79-35.5 154.82-34.39 157.85-33.28 160.29-31.15L160.29-31.15 156.58-25.05Q155.04-26.71 152.94-27.6 150.84-28.49 148.55-28.49L148.55-28.49Q146.23-28.49 144.2-27.61 142.18-26.73 140.66-25.23 139.15-23.73 138.27-21.69 137.39-19.65 137.39-17.36L137.39-17.36Q137.39-15.06 138.27-13.05 139.15-11.04 140.66-9.52 142.18-8.01 144.2-7.13 146.23-6.25 148.55-6.25L148.55-6.25Q150.84-6.25 152.94-7.14 155.04-8.03 156.58-9.69L156.58-9.69ZM170.3-14.4L170.3 0 163.63 0 163.63-26.15 165.24-26.15 167.44-23.05Q169.05-24.51 171.1-25.31 173.15-26.1 175.35-26.1L175.35-26.1 181.24-26.1 181.24-19.46 175.35-19.46Q174.3-19.46 173.37-19.07 172.45-18.68 171.76-17.99 171.08-17.31 170.69-16.38 170.3-15.45 170.3-14.4L170.3-14.4ZM206.75-21.46L194.25-6.4Q194.64-6.27 195.03-6.24 195.42-6.2 195.81-6.2L195.81-6.2Q196.78-6.2 197.69-6.47 198.59-6.74 199.38-7.24 200.18-7.74 200.8-8.46 201.42-9.18 201.81-10.06L201.81-10.06 206.7-5.15Q205.77-3.83 204.56-2.78 203.35-1.73 201.95-1 200.54-0.27 198.99 0.11 197.44 0.49 195.81 0.49L195.81 0.49Q193.05 0.49 190.62-0.54 188.19-1.56 186.37-3.39 184.55-5.22 183.5-7.75 182.45-10.28 182.45-13.31L182.45-13.31Q182.45-16.41 183.5-18.97 184.55-21.53 186.37-23.34 188.19-25.15 190.62-26.15 193.05-27.15 195.81-27.15L195.81-27.15Q197.44-27.15 199.01-26.76 200.57-26.37 201.97-25.63 203.38-24.9 204.6-23.84 205.82-22.78 206.75-21.46L206.75-21.46ZM189.9-9.84L197.66-20.14Q197.2-20.31 196.75-20.36 196.3-20.41 195.81-20.41L195.81-20.41Q194.44-20.41 193.23-19.91 192.02-19.41 191.13-18.48 190.24-17.55 189.73-16.25 189.22-14.94 189.22-13.31L189.22-13.31Q189.22-12.94 189.25-12.48 189.29-12.01 189.37-11.54 189.46-11.06 189.58-10.62 189.7-10.18 189.9-9.84L189.9-9.84ZM235.21-26.1L235.21 0 233.6 0 231.01-3.59Q230.06-2.73 229-1.99 227.93-1.25 226.76-0.7 225.59-0.15 224.36 0.17 223.12 0.49 221.86 0.49L221.86 0.49Q219.1 0.49 216.67-0.44 214.24-1.37 212.42-3.14 210.6-4.91 209.55-7.47 208.5-10.03 208.5-13.31L208.5-13.31Q208.5-16.36 209.55-18.91 210.6-21.46 212.42-23.29 214.24-25.12 216.67-26.14 219.1-27.15 221.86-27.15L221.86-27.15Q223.12-27.15 224.37-26.83 225.61-26.51 226.79-25.95 227.96-25.39 229.02-24.63 230.08-23.88 231.01-23L231.01-23 233.6-26.1 235.21-26.1ZM228.5-13.31L228.5-13.31Q228.5-14.67 227.97-15.95 227.45-17.24 226.54-18.23 225.64-19.21 224.43-19.81 223.22-20.41 221.86-20.41L221.86-20.41Q220.49-20.41 219.28-19.95 218.07-19.48 217.18-18.58 216.29-17.68 215.78-16.35 215.26-15.01 215.26-13.31L215.26-13.31Q215.26-11.6 215.78-10.27 216.29-8.94 217.18-8.03 218.07-7.13 219.28-6.67 220.49-6.2 221.86-6.2L221.86-6.2Q223.22-6.2 224.43-6.8 225.64-7.4 226.54-8.39 227.45-9.38 227.97-10.66 228.5-11.94 228.5-13.31ZM258.45 0L253.4 0Q250.98 0 248.85-0.92 246.73-1.83 245.13-3.43 243.53-5.03 242.62-7.15 241.7-9.28 241.7-11.69L241.7-11.69 241.7-19.46 238.45-19.46 238.45-26.1 241.7-26.1 241.7-36.55 248.34-36.55 248.34-26.1 258.45-26.1 258.45-19.46 248.34-19.46 248.34-11.69Q248.34-10.64 248.73-9.73 249.12-8.81 249.81-8.13 250.49-7.45 251.42-7.04 252.35-6.64 253.4-6.64L253.4-6.64 258.45-6.64 258.45 0ZM285.08-21.46L272.58-6.4Q272.97-6.27 273.36-6.24 273.75-6.2 274.14-6.2L274.14-6.2Q275.12-6.2 276.02-6.47 276.93-6.74 277.72-7.24 278.52-7.74 279.14-8.46 279.76-9.18 280.15-10.06L280.15-10.06 285.03-5.15Q284.11-3.83 282.9-2.78 281.69-1.73 280.29-1 278.88-0.27 277.33 0.11 275.78 0.49 274.14 0.49L274.14 0.49Q271.39 0.49 268.96-0.54 266.53-1.56 264.71-3.39 262.89-5.22 261.84-7.75 260.79-10.28 260.79-13.31L260.79-13.31Q260.79-16.41 261.84-18.97 262.89-21.53 264.71-23.34 266.53-25.15 268.96-26.15 271.39-27.15 274.14-27.15L274.14-27.15Q275.78-27.15 277.34-26.76 278.91-26.37 280.31-25.63 281.71-24.9 282.93-23.84 284.15-22.78 285.08-21.46L285.08-21.46ZM268.24-9.84L276-20.14Q275.54-20.31 275.08-20.36 274.63-20.41 274.14-20.41L274.14-20.41Q272.78-20.41 271.57-19.91 270.36-19.41 269.47-18.48 268.58-17.55 268.07-16.25 267.55-14.94 267.55-13.31L267.55-13.31Q267.55-12.94 267.59-12.48 267.63-12.01 267.71-11.54 267.8-11.06 267.92-10.62 268.04-10.18 268.24-9.84L268.24-9.84ZM296.63-2.49L296.63-2.49Q296.63-1.61 296.31-0.84 295.99-0.07 295.43 0.49 294.87 1.05 294.11 1.38 293.36 1.71 292.48 1.71L292.48 1.71Q291.62 1.71 290.85 1.38 290.08 1.05 289.51 0.49 288.94-0.07 288.61-0.84 288.28-1.61 288.28-2.49L288.28-2.49Q288.28-3.34 288.61-4.1 288.94-4.86 289.51-5.42 290.08-5.98 290.85-6.31 291.62-6.64 292.48-6.64L292.48-6.64Q293.36-6.64 294.11-6.31 294.87-5.98 295.43-5.42 295.99-4.86 296.31-4.1 296.63-3.34 296.63-2.49ZM309.3-35.01L309.3 0 302.29 0 302.29-35.01 309.3-35.01ZM321.74-14.94L321.74 0 315.08 0 315.08-26.15 316.69-26.15 318.89-23.61Q320.5-25.07 322.54-25.87 324.58-26.66 326.8-26.66L326.8-26.66Q329.19-26.66 331.32-25.74 333.44-24.83 335.03-23.23 336.61-21.63 337.53-19.49 338.44-17.36 338.44-14.94L338.44-14.94 338.44 0 331.78 0 331.78-14.94Q331.78-15.97 331.39-16.88 331-17.8 330.31-18.48 329.63-19.17 328.73-19.56 327.82-19.95 326.8-19.95L326.8-19.95Q325.75-19.95 324.82-19.56 323.89-19.17 323.21-18.48 322.53-17.8 322.14-16.88 321.74-15.97 321.74-14.94L321.74-14.94ZM349.84-14.94L349.84 0 343.18 0 343.18-26.15 344.79-26.15 346.99-23.61Q348.6-25.07 350.64-25.87 352.67-26.66 354.9-26.66L354.9-26.66Q357.29-26.66 359.41-25.74 361.54-24.83 363.12-23.23 364.71-21.63 365.63-19.49 366.54-17.36 366.54-14.94L366.54-14.94 366.54 0 359.88 0 359.88-14.94Q359.88-15.97 359.49-16.88 359.1-17.8 358.41-18.48 357.73-19.17 356.83-19.56 355.92-19.95 354.9-19.95L354.9-19.95Q353.85-19.95 352.92-19.56 351.99-19.17 351.31-18.48 350.62-17.8 350.23-16.88 349.84-15.97 349.84-14.94L349.84-14.94ZM396.54-13.31L396.54-13.31Q396.54-10.38 395.49-7.85 394.44-5.32 392.64-3.48 390.83-1.64 388.4-0.57 385.97 0.49 383.19 0.49L383.19 0.49Q380.43 0.49 378-0.57 375.57-1.64 373.75-3.48 371.94-5.32 370.89-7.85 369.84-10.38 369.84-13.31L369.84-13.31Q369.84-16.28 370.89-18.82 371.94-21.36 373.75-23.21 375.57-25.05 378-26.1 380.43-27.15 383.19-27.15L383.19-27.15Q385.97-27.15 388.4-26.16 390.83-25.17 392.64-23.35 394.44-21.53 395.49-18.98 396.54-16.43 396.54-13.31ZM389.83-13.31L389.83-13.31Q389.83-14.92 389.31-16.22 388.78-17.53 387.88-18.47 386.97-19.41 385.77-19.91 384.56-20.41 383.19-20.41L383.19-20.41Q381.82-20.41 380.61-19.91 379.41-19.41 378.51-18.47 377.62-17.53 377.11-16.22 376.6-14.92 376.6-13.31L376.6-13.31Q376.6-11.79 377.11-10.5 377.62-9.2 378.51-8.25 379.41-7.3 380.61-6.75 381.82-6.2 383.19-6.2L383.19-6.2Q384.56-6.2 385.77-6.71 386.97-7.23 387.88-8.15 388.78-9.08 389.31-10.4 389.83-11.72 389.83-13.31ZM413.58 0L406.89 0 396.93-26.15 404.53-26.15 410.24-9.84 415.93-26.15 423.54-26.15 413.58 0ZM450.64-26.1L450.64 0 449.03 0 446.44-3.59Q445.49-2.73 444.43-1.99 443.37-1.25 442.19-0.7 441.02-0.15 439.79 0.17 438.56 0.49 437.29 0.49L437.29 0.49Q434.53 0.49 432.1-0.44 429.67-1.37 427.85-3.14 426.03-4.91 424.98-7.47 423.93-10.03 423.93-13.31L423.93-13.31Q423.93-16.36 424.98-18.91 426.03-21.46 427.85-23.29 429.67-25.12 432.1-26.14 434.53-27.15 437.29-27.15L437.29-27.15Q438.56-27.15 439.8-26.83 441.05-26.51 442.22-25.95 443.39-25.39 444.45-24.63 445.51-23.88 446.44-23L446.44-23 449.03-26.1 450.64-26.1ZM443.93-13.31L443.93-13.31Q443.93-14.67 443.4-15.95 442.88-17.24 441.97-18.23 441.07-19.21 439.86-19.81 438.65-20.41 437.29-20.41L437.29-20.41Q435.92-20.41 434.71-19.95 433.5-19.48 432.61-18.58 431.72-17.68 431.21-16.35 430.69-15.01 430.69-13.31L430.69-13.31Q430.69-11.6 431.21-10.27 431.72-8.94 432.61-8.03 433.5-7.13 434.71-6.67 435.92-6.2 437.29-6.2L437.29-6.2Q438.65-6.2 439.86-6.8 441.07-7.4 441.97-8.39 442.88-9.38 443.4-10.66 443.93-11.94 443.93-13.31ZM473.88 0L468.83 0Q466.41 0 464.29-0.92 462.16-1.83 460.56-3.43 458.96-5.03 458.05-7.15 457.13-9.28 457.13-11.69L457.13-11.69 457.13-19.46 453.89-19.46 453.89-26.1 457.13-26.1 457.13-36.55 463.77-36.55 463.77-26.1 473.88-26.1 473.88-19.46 463.77-19.46 463.77-11.69Q463.77-10.64 464.16-9.73 464.55-8.81 465.24-8.13 465.92-7.45 466.85-7.04 467.78-6.64 468.83-6.64L468.83-6.64 473.88-6.64 473.88 0ZM500.51-21.46L488.01-6.4Q488.4-6.27 488.8-6.24 489.19-6.2 489.58-6.2L489.58-6.2Q490.55-6.2 491.46-6.47 492.36-6.74 493.15-7.24 493.95-7.74 494.57-8.46 495.19-9.18 495.58-10.06L495.58-10.06 500.47-5.15Q499.54-3.83 498.33-2.78 497.12-1.73 495.72-1 494.31-0.27 492.76 0.11 491.21 0.49 489.58 0.49L489.58 0.49Q486.82 0.49 484.39-0.54 481.96-1.56 480.14-3.39 478.32-5.22 477.27-7.75 476.22-10.28 476.22-13.31L476.22-13.31Q476.22-16.41 477.27-18.97 478.32-21.53 480.14-23.34 481.96-25.15 484.39-26.15 486.82-27.15 489.58-27.15L489.58-27.15Q491.21-27.15 492.77-26.76 494.34-26.37 495.74-25.63 497.14-24.9 498.37-23.84 499.59-22.78 500.51-21.46L500.51-21.46ZM483.67-9.84L491.43-20.14Q490.97-20.31 490.52-20.36 490.06-20.41 489.58-20.41L489.58-20.41Q488.21-20.41 487-19.91 485.79-19.41 484.9-18.48 484.01-17.55 483.5-16.25 482.98-14.94 482.98-13.31L482.98-13.31Q482.98-12.94 483.02-12.48 483.06-12.01 483.14-11.54 483.23-11.06 483.35-10.62 483.47-10.18 483.67-9.84L483.67-9.84Z" opacity="1" transform="matrix(1,0,0,1,0,0)" fill="#111111" class="slogan-text-1" data-fill-palette-color="quaternary" id="text-1"></path></svg></g></svg></g></svg></g></svg></g><g transform="matrix(1,0,0,1,50.56593082294701,0)"><svg viewBox="0 0 112.02657958126309 82.22134281193621" height="82.22134281193621" width="112.02657958126309"><g><svg xmlns="http://www.w3.org/2000/svg" xmlns:xlink="http://www.w3.org/1999/xlink" version="1.1" x="0" y="0" viewBox="5 8 109 80" enable-background="new 0 0 114.667 100" xml:space="preserve" height="82.22134281193621" width="112.02657958126309" class="icon-icon-0" data-fill-palette-color="quaternary" id="icon-0"><g fill="#111111" data-fill-palette-color="quaternary"><path d="M13 68c-2.209 0-4-1.791-4-4V16.792C9 8 16.559 8 20.619 8h80.884c2.24 0 4.556 0 6.227 1.772 1.559 1.652 1.439 3.654 1.344 5.263C109.039 15.619 109 16.28 109 17.071V63c0 2.209-1.791 4-4 4s-4-1.791-4-4V17.071c0-0.385 0.008-0.742 0.019-1.071H20.619c-0.938 0-2.766 0-3.585 0.187C17.016 16.326 17 16.523 17 16.792V64C17 66.209 15.209 68 13 68z" fill="#111111" data-fill-palette-color="quaternary"></path></g><path d="M109.125 74H78v0.164C78 79.044 74.044 83 69.164 83H49.836C44.956 83 41 79.044 41 74.164V74H9.875C6.078 74 5 77.078 5 80.875v0.25C5 84.922 6.078 88 9.875 88h99.25c3.797 0 4.875-3.078 4.875-6.875v-0.25C114 77.078 112.921 74 109.125 74z" fill="#111111" data-fill-palette-color="quaternary"></path></svg></g></svg></g><g></g></svg></g></svg></g></svg></g></svg></g><defs></defs></svg><rect width="342.85155851775386" height="342.85155851775386" fill="none" stroke="none" visibility="hidden"></rect></g></svg></g></svg>